<?xml version="1.0" encoding="iso-8859-1"?>
<!-- Uploaded to: SVG Repo, www.svgrepo.com, Generator: SVG Repo Mixer Tools -->
<!-- Shipping Container Icon -->
<svg height="800px" width="800px" version="1.1" id="Layer_1" xmlns="http://www.w3.org/2000/svg" xmlns:xlink="http://www.w3.org/1999/xlink" 
	 viewBox="0 0 512 512" xml:space="preserve">
<path style="fill:#F07B52;" d="M478.632,503.458H34.436c-9.436,0-17.084-7.648-17.084-17.084V213.022
	c0-9.436,7.649-17.084,17.084-17.084h444.196c9.436,0,17.084,7.648,17.084,17.084v273.351
	C495.716,495.809,488.068,503.458,478.632,503.458z"/>
<path style="fill:#E5563C;" d="M51.52,477.831c-4.717,0-8.542-3.825-8.542-8.542V195.937h-8.542
	c-9.435,0-17.084,7.648-17.084,17.084v273.351c0,9.436,7.65,17.084,17.084,17.084h444.196c9.435,0,17.084-7.648,17.084-17.084
	v-8.542H51.52z"/>
<g>
	<path style="fill:#CF442B;" d="M273.618,435.12c0,9.436-7.648,17.084-17.084,17.084l0,0c-9.436,0-17.084-7.648-17.084-17.084
		V264.275c0-9.436,7.648-17.084,17.084-17.084l0,0c9.436,0,17.084,7.648,17.084,17.084V435.12z"/>
	<path style="fill:#CF442B;" d="M350.498,435.12c0,9.436-7.648,17.084-17.084,17.084l0,0c-9.436,0-17.084-7.648-17.084-17.084
		V264.275c0-9.436,7.648-17.084,17.084-17.084l0,0c9.436,0,17.084,7.648,17.084,17.084V435.12z"/>
	<path style="fill:#CF442B;" d="M427.379,435.12c0,9.436-7.648,17.084-17.084,17.084l0,0c-9.436,0-17.084-7.648-17.084-17.084
		V264.275c0-9.436,7.648-17.084,17.084-17.084l0,0c9.436,0,17.084,7.648,17.084,17.084V435.12z"/>
	<path style="fill:#CF442B;" d="M196.738,264.275c0-9.436-7.648-17.084-17.084-17.084l0,0c-9.436,0-17.084,7.648-17.084,17.084
		V435.12c0,9.436,7.648,17.084,17.084,17.084l0,0c9.436,0,17.084-7.648,17.084-17.084V264.275z"/>
</g>
<g>
	<path style="fill:#B83C26;" d="M179.654,435.12V264.275c0-6.32,3.44-11.825,8.542-14.78c-2.515-1.456-5.426-2.304-8.542-2.304
		c-9.435,0-17.084,7.648-17.084,17.084V435.12c0,9.436,7.65,17.084,17.084,17.084c3.116,0,6.028-0.848,8.542-2.304
		C183.094,446.945,179.654,441.44,179.654,435.12z"/>
	<path style="fill:#B83C26;" d="M256.534,435.12V264.275c0-6.32,3.44-11.825,8.542-14.78c-2.515-1.456-5.426-2.304-8.542-2.304
		c-9.435,0-17.084,7.648-17.084,17.084V435.12c0,9.436,7.65,17.084,17.084,17.084c3.116,0,6.028-0.848,8.542-2.304
		C259.974,446.945,256.534,441.44,256.534,435.12z"/>
	<path style="fill:#B83C26;" d="M333.414,435.12V264.275c0-6.32,3.44-11.825,8.542-14.78c-2.515-1.456-5.426-2.304-8.542-2.304
		c-9.435,0-17.084,7.648-17.084,17.084V435.12c0,9.436,7.65,17.084,17.084,17.084c3.116,0,6.028-0.848,8.542-2.304
		C336.854,446.945,333.414,441.44,333.414,435.12z"/>
	<path style="fill:#B83C26;" d="M410.294,435.12V264.275c0-6.32,3.44-11.825,8.542-14.78c-2.515-1.456-5.426-2.304-8.542-2.304
		c-9.435,0-17.084,7.648-17.084,17.084V435.12c0,9.436,7.65,17.084,17.084,17.084c3.116,0,6.028-0.848,8.542-2.304
		C413.734,446.945,410.294,441.44,410.294,435.12z"/>
</g>
<path style="fill:#CF442B;" d="M119.858,264.275c0-9.436-7.648-17.084-17.084-17.084l0,0c-9.436,0-17.084,7.648-17.084,17.084
	V435.12c0,9.436,7.648,17.084,17.084,17.084l0,0c9.436,0,17.084-7.648,17.084-17.084V264.275z"/>
<path style="fill:#B83C26;" d="M102.774,435.12V264.275c0-6.32,3.44-11.825,8.542-14.78c-2.515-1.456-5.426-2.304-8.542-2.304
	c-9.435,0-17.084,7.648-17.084,17.084V435.12c0,9.436,7.65,17.084,17.084,17.084c3.116,0,6.028-0.848,8.542-2.304
	C106.214,446.945,102.774,441.44,102.774,435.12z"/>
<path d="M478.632,188.463H429.27l-150.955-75.745c12.215-7.396,20.131-20.946,20.131-36.238c0-20.52-14.148-37.797-34.436-41.548
	V8.008c0-4.423-3.585-8.008-8.008-8.008c-4.424,0-8.008,3.586-8.008,8.008v34.169c0,4.423,3.851,8.008,8.275,8.008
	c14.426,0,26.294,11.736,26.294,26.161s-11.67,26.161-26.094,26.161c-14.425,0-26.127-11.736-26.127-26.161
	c0-4.423-3.569-8.008-7.991-8.008c-4.423,0-8,3.586-8,8.008c0,15.293,8.187,28.976,20.402,36.372L83.798,188.463H34.436
	c-13.836,0-25.627,10.723-25.627,24.559v273.351C8.809,500.21,20.6,512,34.436,512h444.196c13.836,0,24.559-11.79,24.559-25.627
	V213.022C503.191,199.186,492.468,188.463,478.632,188.463z M487.174,486.373c0,5.005-3.538,9.61-8.542,9.61H34.436
	c-5.005,0-9.61-4.605-9.61-9.61V213.022c0-5.005,4.605-8.542,9.61-8.542h256.267c4.424,0,8.008-3.586,8.008-8.008
	c0-4.423-3.585-8.008-8.008-8.008H119.614l136.92-68.461l136.92,68.461h-68.582c-4.424,0-8.008,3.586-8.008,8.008
	c0,4.423,3.585,8.008,8.008,8.008h102.473c0.01,0,0.018,0.001,0.028,0.001c0.007,0,0.015-0.001,0.022-0.001h51.237
	c5.005,0,8.542,3.538,8.542,8.542V486.373z"/>
<path d="M256,239.182c-13.836,0-25.093,11.257-25.093,25.093V435.12c0,13.836,11.257,25.093,25.093,25.093
	c13.836,0,25.093-11.257,25.093-25.093V264.275C281.093,250.439,269.836,239.182,256,239.182z M265.076,435.12
	c0,5.005-4.071,9.076-9.076,9.076s-9.076-4.071-9.076-9.076V264.275c0-5.005,4.071-9.076,9.076-9.076s9.076,4.071,9.076,9.076
	V435.12z"/>
<path d="M332.88,239.182c-13.836,0-25.093,11.257-25.093,25.093V435.12c0,13.836,11.257,25.093,25.093,25.093
	c13.836,0,25.093-11.257,25.093-25.093V264.275C357.973,250.439,346.716,239.182,332.88,239.182z M341.956,435.12
	c0,5.005-4.071,9.076-9.076,9.076c-5.005,0-9.076-4.071-9.076-9.076V264.275c0-5.005,4.071-9.076,9.076-9.076
	c5.005,0,9.076,4.071,9.076,9.076V435.12z"/>
<path d="M409.76,239.182c-13.836,0-25.093,11.257-25.093,25.093V435.12c0,13.836,11.257,25.093,25.093,25.093
	c13.836,0,25.093-11.257,25.093-25.093V264.275C434.853,250.439,423.596,239.182,409.76,239.182z M418.836,435.12
	c0,5.005-4.071,9.076-9.076,9.076s-9.076-4.071-9.076-9.076V264.275c0-5.005,4.071-9.076,9.076-9.076s9.076,4.071,9.076,9.076
	V435.12z"/>
<path d="M179.12,239.182c-13.836,0-25.093,11.257-25.093,25.093V435.12c0,13.836,11.257,25.093,25.093,25.093
	s25.093-11.257,25.093-25.093V264.275C204.213,250.439,192.956,239.182,179.12,239.182z M188.196,435.12
	c0,5.005-4.071,9.076-9.076,9.076c-5.005,0-9.076-4.071-9.076-9.076V264.275c0-5.005,4.071-9.076,9.076-9.076
	c5.005,0,9.076,4.071,9.076,9.076V435.12z"/>
<path d="M102.24,239.182c-13.836,0-25.093,11.257-25.093,25.093V435.12c0,13.836,11.257,25.093,25.093,25.093
	s25.093-11.257,25.093-25.093V264.275C127.333,250.439,116.076,239.182,102.24,239.182z M111.316,435.12
	c0,5.005-4.071,9.076-9.076,9.076c-5.005,0-9.076-4.071-9.076-9.076V264.275c0-5.005,4.071-9.076,9.076-9.076
	c5.005,0,9.076,4.071,9.076,9.076V435.12z"/>

<!-- Shield Icon -->
<g transform="translate(450, 450) scale(12) translate(-17, -17)">
  <g id="SVGRepo_tracerCarrier" stroke-linecap="round" stroke-linejoin="round"></g>
    <g id="SVGRepo_iconCarrier">
        <path opacity="0.95" d="M3.37752 5.08241C3 5.62028 3 7.21907 3 10.4167V11.9914C3 17.6294 7.23896 20.3655 9.89856 21.5273C10.62 21.8424 10.9807 22 12 22C13.0193 22 13.38 21.8424 14.1014 21.5273C16.761 20.3655 21 17.6294 21 11.9914V10.4167C21 7.21907 21 5.62028 20.6225 5.08241C20.245 4.54454 18.7417 4.02996 15.7351 3.00079L15.1623 2.80472C13.595 2.26824 12.8114 2 12 2C11.1886 2 10.405 2.26824 8.83772 2.80472L8.26491 3.00079C5.25832 4.02996 3.75503 4.54454 3.37752 5.08241Z" fill="#003cff"></path>
        <path d="M15.0595 10.4995C15.3353 10.1905 15.3085 9.71643 14.9995 9.44055C14.6905 9.16468 14.2164 9.19152 13.9406 9.5005L10.9286 12.8739L10.0595 11.9005C9.78359 11.5915 9.30947 11.5647 9.0005 11.8406C8.69152 12.1164 8.66468 12.5905 8.94055 12.8995L10.3691 14.4995C10.5114 14.6589 10.7149 14.75 10.9286 14.75C11.1422 14.75 11.3457 14.6589 11.488 14.4995L15.0595 10.4995Z" fill="#34D399"></path>
    </g>
</g>
</svg>
